<svg xmlns="http://www.w3.org/2000/svg" xmlns:xlink="http://www.w3.org/1999/xlink" width="58" height="70" viewBox="0 0 58 70"><defs><path id="ucn0a" d="M711.73 2443.04c-.56 0-1.02.46-1.02 1.02v4.36a1.02 1.02 0 1 0 2.04 0v-4.36c0-.56-.46-1.02-1.02-1.02z"/><path id="ucn0c" d="M742.77 2427.18c-1.04.67-5.59 2.63-9.04 3.73h-.01a2.25 2.25 0 0 1-1.37-2.07v-4.47c3.93-2.5 6.54-6.9 6.54-11.9v-1.68c0-1.47-.61-2.9-1.67-3.91-5.57-5.31-17.3-6.27-17.79-6.3a1.02 1.02 0 0 0-.15 2.02c.11.01 11.49.95 16.53 5.75a3.37 3.37 0 0 1 1.04 2.44v1.69c0 6.64-5.4 12.05-12.05 12.05-6.64 0-12.05-5.4-12.05-12.05v-.83c0-.41.2-.78.56-1 1.37-.8 3.3-2.4 4.78-5.34a1.02 1.02 0 1 0-1.82-.91 10.74 10.74 0 0 1-4 4.5 3.2 3.2 0 0 0-1.56 2.75v.83c0 5 2.61 9.38 6.54 11.89v4.47c0 .9-.54 1.71-1.37 2.07-3.46-1.1-8.01-3.07-9.05-3.73a.2.2 0 0 1-.1-.22c.96-5.62 1.78-12.92 2.43-21.7.35-4.77 2.03-8.76 4.86-11.55 2.77-2.73 6.5-4.17 10.78-4.17 4.28 0 8 1.44 10.78 4.17 2.83 2.79 4.5 6.78 4.86 11.54a235.1 235.1 0 0 0 2.44 21.71c.02.12-.05.19-.1.22zm-17.97 10.42a9.32 9.32 0 0 1-8.16-4.8l.05-.02a4.28 4.28 0 0 0 2.6-3.94v-3.4a14.01 14.01 0 0 0 11.03 0v3.4a4.28 4.28 0 0 0 2.6 3.94l.04.02a9.4 9.4 0 0 1-8.16 4.8zm20.08-10.98c-.95-5.56-1.76-12.8-2.4-21.52-.4-5.26-2.28-9.7-5.47-12.84-3.16-3.11-7.38-4.76-12.21-4.76-4.83 0-9.05 1.65-12.2 4.76-3.2 3.14-5.08 7.58-5.47 12.84a233.16 233.16 0 0 1-2.41 21.52c-.16.9.24 1.8 1.01 2.28 1.02.65 4.32 2.1 7.36 3.2l-6.51 2.8a7.54 7.54 0 0 0-4.58 6.94v6.58a1.02 1.02 0 1 0 2.04 0v-6.58a5.5 5.5 0 0 1 3.34-5.07l3.5-1.5c2.79 5.4 8.07 8.72 13.92 8.72 2.1 0 4.15-.42 6.08-1.26a1.02 1.02 0 1 0-.82-1.87 13.1 13.1 0 0 1-5.26 1.1c-5.03 0-9.59-2.86-12.05-7.5l2.01-.86a11.35 11.35 0 0 0 20.58-1.08c3.3-1.14 7.37-2.88 8.53-3.62a2.25 2.25 0 0 0 1.01-2.28z"/><path id="ucn0e" d="M746.58 2455.02a10.97 10.97 0 0 1 0-21.92 10.97 10.97 0 0 1 0 21.92zm0-23.96c-7.17 0-13 5.84-13 13 0 7.17 5.83 13 13 13s13-5.83 13-13c0-7.16-5.83-13-13-13z"/><path id="ucn0g" d="M753.84 2440.08c-.4-.4-1.05-.4-1.44 0l-6.9 6.9-3.64-3.64a1.02 1.02 0 0 0-1.44 1.44l4.35 4.36a1.02 1.02 0 0 0 1.44 0l7.63-7.62c.4-.4.4-1.05 0-1.44z"/><linearGradient id="ucn0b" x1="711.37" x2="711.37" y1="2449.43" y2="2442.37" gradientUnits="userSpaceOnUse"><stop offset="0" stop-color="#ce2e3e"/><stop offset="1" stop-color="#ea443a"/></linearGradient><linearGradient id="ucn0d" x1="715.85" x2="715.84" y1="2449.44" y2="2381.04" gradientUnits="userSpaceOnUse"><stop offset="0" stop-color="#ce2e3e"/><stop offset="1" stop-color="#ea443a"/></linearGradient><linearGradient id="ucn0f" x1="741.97" x2="741.96" y1="2457.06" y2="2428.35" gradientUnits="userSpaceOnUse"><stop offset="0" stop-color="#ce2e3e"/><stop offset="1" stop-color="#ea443a"/></linearGradient><linearGradient id="ucn0h" x1="744.64" x2="744.64" y1="2449.44" y2="2438.77" gradientUnits="userSpaceOnUse"><stop offset="0" stop-color="#ce2e3e"/><stop offset="1" stop-color="#ea443a"/></linearGradient></defs><g><g transform="translate(-702 -2387)"><g><g><g><use fill="url(#ucn0b)" xlink:href="#ucn0a"/></g></g></g><g><g><g><use fill="url(#ucn0d)" xlink:href="#ucn0c"/></g></g></g><g><g><g><use fill="url(#ucn0f)" xlink:href="#ucn0e"/></g></g></g><g><g><g><use fill="url(#ucn0h)" xlink:href="#ucn0g"/></g></g></g></g></g></svg>