<svg xmlns="http://www.w3.org/2000/svg" xmlns:xlink="http://www.w3.org/1999/xlink" width="70" height="71" viewBox="0 0 70 71"><defs><path id="qpbna" d="M1156.59 2405.04h-3.68l5.93-5.93a1.03 1.03 0 1 0-1.45-1.45l-5.93 5.92v-3.67l8.91-8.9v4.1c0 .56.46 1.02 1.03 1.02h4.1zm-2.8 24.04a26.4 26.4 0 0 1-26.37 26.37 26.4 26.4 0 0 1-26.37-26.37 26.4 26.4 0 0 1 26.37-26.38c6.9 0 13.2 2.67 17.9 7.03l-18.62 18.62a1.03 1.03 0 1 0 1.45 1.45l4.64-4.64a6.65 6.65 0 1 1-4.13-2.61 1.03 1.03 0 1 0 .38-2.02 8.7 8.7 0 1 0-1.62 17.24 8.7 8.7 0 0 0 6.84-14.08l3.21-3.21a13.24 13.24 0 0 1-10.05 21.82c-7.29 0-13.22-5.93-13.22-13.22a13.24 13.24 0 0 1 19.5-11.64 1.03 1.03 0 1 0 .98-1.8 15.3 15.3 0 0 0-22.53 13.44c0 8.42 6.85 15.27 15.27 15.27a15.29 15.29 0 0 0 11.5-25.32l3.21-3.2a19.82 19.82 0 0 1-14.7 33.05 19.82 19.82 0 0 1-19.8-19.8 19.82 19.82 0 0 1 30.47-16.68 1.03 1.03 0 1 0 1.11-1.72 21.87 21.87 0 0 0-33.64 18.4c0 12.04 9.8 21.84 21.85 21.84a21.87 21.87 0 0 0 16.16-36.55l3.2-3.2c4.35 4.71 7.02 11 7.02 17.9zm15.13-34.37a1.03 1.03 0 0 0-.95-.63h-5.55v-5.55a1.03 1.03 0 0 0-1.75-.73l-10.96 10.96c-.19.2-.3.45-.3.72v6.16l-2.64 2.64a28.32 28.32 0 0 0-19.35-7.63 28.46 28.46 0 0 0-28.42 28.43 28.46 28.46 0 0 0 28.42 28.42 28.46 28.46 0 0 0 28.43-28.42c0-7.47-2.9-14.28-7.63-19.35l2.64-2.64h6.16c.27 0 .53-.11.72-.3l10.96-10.96c.3-.3.38-.74.22-1.12z"/><linearGradient id="qpbnb" x1="1121.59" x2="1121.57" y1="2457.5" y2="2380.2" gradientUnits="userSpaceOnUse"><stop offset="0" stop-color="#ce2e3e"/><stop offset="1" stop-color="#ea443a"/></linearGradient></defs><g><g transform="translate(-1099 -2387)"><g><g><use fill="url(#qpbnb)" xlink:href="#qpbna"/></g></g></g></g></svg>