<svg xmlns="http://www.w3.org/2000/svg" xmlns:xlink="http://www.w3.org/1999/xlink" width="70" height="56" viewBox="0 0 70 56"><defs><path id="hc44a" d="M1557.78 2394.5h-63.56a3.22 3.22 0 0 0-3.22 3.22v37.26a3.22 3.22 0 0 0 3.22 3.22h2.19a1.03 1.03 0 0 0 0-2.05h-2.2c-.64 0-1.16-.53-1.16-1.17v-37.26c0-.65.52-1.17 1.17-1.17h63.56c.65 0 1.17.52 1.17 1.17v37.26c0 .64-.52 1.17-1.17 1.17h-2.19a1.03 1.03 0 0 0 0 2.05h2.2a3.22 3.22 0 0 0 3.21-3.22v-37.26a3.22 3.22 0 0 0-3.22-3.22z"/><path id="hc44c" d="M1530.38 2440.53h-8.76c-.81 0-1.57.22-2.22.61.14-.74.65-1.36 1.38-1.65l3.23-1.3h3.98l3.23 1.3c.73.29 1.23.91 1.38 1.65a4.29 4.29 0 0 0-2.22-.61zm-7.74-12.1a2.27 2.27 0 0 1 2.26-2.27h2.19a2.25 2.25 0 0 1 2.27 2.25v2.8c0 1.19-.63 2.27-1.68 2.88-.32.19-.51.52-.51.89v1.17h-2.34v-1.17c0-.37-.2-.7-.5-.89a3.32 3.32 0 0 1-1.69-2.89zm9.35 9.15l-2.77-1.1v-.95a5.41 5.41 0 0 0 2.19-4.33v-2.79a4.28 4.28 0 0 0-4.31-4.3h-2.22a4.32 4.32 0 0 0-4.29 4.31v2.78c0 1.7.83 3.31 2.2 4.33v.95l-2.78 1.1a4.3 4.3 0 0 0-2.7 4v6.55a1.03 1.03 0 0 0 2.04 0v-3.29a2.26 2.26 0 0 1 2.27-2.26h8.76a2.26 2.26 0 0 1 2.27 2.26v3.29a1.03 1.03 0 0 0 2.05 0v-6.54a4.3 4.3 0 0 0-2.71-4z"/><path id="hc44e" d="M1550.11 2440.53h-8.77c-.8 0-1.57.22-2.21.61.14-.74.65-1.36 1.37-1.65l3.23-1.3h4l3.22 1.3c.72.29 1.23.91 1.38 1.65a4.29 4.29 0 0 0-2.22-.61zm-7.74-12.1a2.27 2.27 0 0 1 2.25-2.27h2.2a2.25 2.25 0 0 1 2.27 2.25v2.8c0 1.19-.63 2.27-1.69 2.88-.31.19-.5.52-.5.89v1.17h-2.34v-1.17c0-.37-.2-.7-.5-.89a3.32 3.32 0 0 1-1.7-2.89zm9.34 9.15l-2.77-1.1v-.95a5.41 5.41 0 0 0 2.2-4.33v-2.79a4.28 4.28 0 0 0-4.32-4.3h-2.21a4.32 4.32 0 0 0-4.3 4.31v2.78c0 1.7.83 3.31 2.2 4.33v.95l-2.77 1.1a4.3 4.3 0 0 0-2.71 4v6.55a1.03 1.03 0 0 0 2.05 0v-3.29a2.26 2.26 0 0 1 2.26-2.26h8.77a2.26 2.26 0 0 1 2.26 2.26v3.29a1.03 1.03 0 0 0 2.05 0v-6.54a4.3 4.3 0 0 0-2.7-4z"/><path id="hc44g" d="M1501.89 2440.53c-.81 0-1.57.22-2.22.61.15-.74.66-1.36 1.38-1.65l3.23-1.3h3.99l3.23 1.3c.72.29 1.23.91 1.37 1.65a4.29 4.29 0 0 0-2.21-.61zm1.02-9.33v-2.78a2.27 2.27 0 0 1 2.26-2.26h2.2a2.25 2.25 0 0 1 2.26 2.25v2.8c0 1.19-.63 2.27-1.68 2.88-.32.19-.51.52-.51.89v1.17h-2.33v-1.17c0-.37-.2-.7-.51-.89a3.32 3.32 0 0 1-1.69-2.89zm9.35 6.38l-2.77-1.1v-.95a5.41 5.41 0 0 0 2.2-4.33v-2.79a4.28 4.28 0 0 0-4.34-4.3h-2.19a4.32 4.32 0 0 0-4.3 4.31v2.78c0 1.7.83 3.31 2.2 4.33v.95l-2.77 1.1a4.3 4.3 0 0 0-2.71 4v6.55a1.03 1.03 0 0 0 2.05 0v-3.29a2.26 2.26 0 0 1 2.26-2.26h8.77a2.26 2.26 0 0 1 2.26 2.26v3.29a1.03 1.03 0 0 0 2.05 0v-6.54a4.3 4.3 0 0 0-2.71-4z"/><path id="hc44i" d="M1526 2401.07a15.29 15.29 0 0 0-9.4 27.32 1.02 1.02 0 0 0 1.44-.18c.35-.45.27-1.09-.17-1.44a13.24 13.24 0 0 1 8.13-23.65 13.24 13.24 0 0 1 8.14 23.65 1.03 1.03 0 1 0 1.26 1.62 15.29 15.29 0 0 0-9.4-27.31z"/><path id="hc44k" d="M1522.64 2421.07v-9.45l8.5 4.73zm10.1-6.18l-9.66-5.37a1.66 1.66 0 0 0-1.67.02c-.51.3-.82.84-.82 1.44v10.74a1.67 1.67 0 0 0 2.48 1.46l9.67-5.37a1.67 1.67 0 0 0 0-2.92z"/><linearGradient id="hc44b" x1="1513.59" x2="1513.57" y1="2438.2" y2="2389.94" gradientUnits="userSpaceOnUse"><stop offset="0" stop-color="#ce2e3e"/><stop offset="1" stop-color="#ea443a"/></linearGradient><linearGradient id="hc44d" x1="1522.91" x2="1522.91" y1="2449.15" y2="2421.49" gradientUnits="userSpaceOnUse"><stop offset="0" stop-color="#ce2e3e"/><stop offset="1" stop-color="#ea443a"/></linearGradient><linearGradient id="hc44f" x1="1542.64" x2="1542.64" y1="2449.15" y2="2421.49" gradientUnits="userSpaceOnUse"><stop offset="0" stop-color="#ce2e3e"/><stop offset="1" stop-color="#ea443a"/></linearGradient><linearGradient id="hc44h" x1="1503.19" x2="1503.19" y1="2449.15" y2="2421.49" gradientUnits="userSpaceOnUse"><stop offset="0" stop-color="#ce2e3e"/><stop offset="1" stop-color="#ea443a"/></linearGradient><linearGradient id="hc44j" x1="1520.59" x2="1520.58" y1="2428.6" y2="2398.2" gradientUnits="userSpaceOnUse"><stop offset="0" stop-color="#ce2e3e"/><stop offset="1" stop-color="#ea443a"/></linearGradient><linearGradient id="hc44l" x1="1524.79" x2="1524.78" y1="2423.39" y2="2407.83" gradientUnits="userSpaceOnUse"><stop offset="0" stop-color="#ce2e3e"/><stop offset="1" stop-color="#ea443a"/></linearGradient></defs><g><g transform="translate(-1491 -2394)"><g><g><g><use fill="url(#hc44b)" xlink:href="#hc44a"/></g></g></g><g><g><g><use fill="url(#hc44d)" xlink:href="#hc44c"/></g></g></g><g><g><g><use fill="url(#hc44f)" xlink:href="#hc44e"/></g></g></g><g><g><g><use fill="url(#hc44h)" xlink:href="#hc44g"/></g></g></g><g><g><g><use fill="url(#hc44j)" xlink:href="#hc44i"/></g></g></g><g><g><g><use fill="url(#hc44l)" xlink:href="#hc44k"/></g></g></g></g></g></svg>