<svg xmlns="http://www.w3.org/2000/svg" xmlns:xlink="http://www.w3.org/1999/xlink" width="50" height="62" viewBox="0 0 50 62"><defs><path id="wbfla" d="M749.02 2676.73a8.37 8.37 0 0 1-8.01 6.05h-.27c.15-.58.26-1.17.34-1.76l1.32-9.93h2.36c1.4 0 2.7.64 3.54 1.76a4.4 4.4 0 0 1 .72 3.88zm-9.73 4.05a13.4 13.4 0 0 1-26.58 0l-2.07-15.48h30.72zm-12.26 22.94v4.12h-2.06v-4.12a3.78 3.78 0 0 0 2.06 0zm-2.06-7.3v-2.23a15.24 15.24 0 0 0 2.06 0v2.22a3.78 3.78 0 0 0-2.06 0zm1.03 1.66a2 2 0 1 1 0 3.98 2 2 0 0 1 0-3.98zm2.9 11.56c.03 0 .05.03.05.07v2.88c0 .5.4.9.9.9h3.1c.04 0 .06.03.07.06l2.43 9.71h-18.9l2.43-9.71c0-.03.03-.05.06-.05H726a.9.9 0 1 0 0-1.8h-2.95v-2c0-.03.02-.06.06-.06zm-17.9-26.86c-3.7 0-7-2.49-8.02-6.05a4.4 4.4 0 0 1 .72-3.88 4.4 4.4 0 0 1 3.53-1.76h2.36l1.33 9.93c.08.6.2 1.18.34 1.76H711zm38.74-11.02a6.18 6.18 0 0 0-4.98-2.48h-2.11l.53-3.98h1.13a.9.9 0 1 0 0-1.8H707.7a.9.9 0 1 0 0 1.8h1.13l.53 3.98h-2.12c-1.97 0-3.78.9-4.97 2.48a6.18 6.18 0 0 0-1.02 5.47 10.18 10.18 0 0 0 9.75 7.35h.85a15.2 15.2 0 0 0 11.33 9.37v3.6a3.78 3.78 0 0 0 0 5.04v5.25h-.06c-1.03 0-1.87.84-1.87 1.87v1.99h-2.2c-.86 0-1.6.58-1.8 1.4l-2.72 10.85a.9.9 0 0 0 .88 1.12h21.2a.9.9 0 0 0 .88-1.12l-2.71-10.84a1.86 1.86 0 0 0-1.81-1.41h-2.2v-2c0-1.02-.84-1.86-1.87-1.86h-.06v-5.25a3.78 3.78 0 0 0 0-5.05v-3.59a15.2 15.2 0 0 0 11.32-9.37h.86c4.5 0 8.5-3.02 9.75-7.35.54-1.9.17-3.9-1.02-5.47z"/><path id="wbflc" d="M729.86 2715.55h-7.72a.9.9 0 1 0 0 1.8h7.72a.9.9 0 1 0 0-1.8z"/><path id="wbfle" d="M727.93 2719.4h-3.86a.9.9 0 1 0 0 1.81h3.86a.9.9 0 1 0 0-1.8z"/><path id="wbflg" d="M728.14 2671.08l-.56-1.14c-.3-.6-.9-.98-1.58-.98s-1.28.38-1.58.98l-1.82 3.68-4.06.6c-.66.09-1.21.55-1.42 1.2-.2.64-.04 1.33.45 1.8l3.27 3.2a.9.9 0 1 0 1.26-1.3l-3.21-3.13 4.44-.65a.9.9 0 0 0 .68-.5l1.99-4.02.52 1.06a.9.9 0 1 0 1.62-.8z"/><path id="wbfli" d="M734.88 2675.41c-.21-.64-.76-1.1-1.42-1.2l-4.53-.66a.9.9 0 1 0-.26 1.79l4.44.65-3.21 3.13a.9.9 0 0 0-.26.8l.76 4.43-3.98-2.1a.9.9 0 0 0-.84 0l-3.98 2.1.18-1a.9.9 0 0 0-1.78-.31l-.19 1.09c-.11.66.16 1.32.7 1.72.55.4 1.26.45 1.86.13l3.63-1.9 3.63 1.9a1.76 1.76 0 0 0 2.56-1.85l-.7-4.05 2.94-2.86c.49-.47.66-1.16.45-1.8z"/><linearGradient id="wbflb" x1="717.14" x2="717.12" y1="2725.07" y2="2657.08" gradientUnits="userSpaceOnUse"><stop offset="0" stop-color="#ce2e3e"/><stop offset="1" stop-color="#ea443a"/></linearGradient><linearGradient id="wbfld" x1="724.31" x2="724.31" y1="2717.35" y2="2715.36" gradientUnits="userSpaceOnUse"><stop offset="0" stop-color="#ce2e3e"/><stop offset="1" stop-color="#ea443a"/></linearGradient><linearGradient id="wbflf" x1="725" x2="725" y1="2721.21" y2="2719.22" gradientUnits="userSpaceOnUse"><stop offset="0" stop-color="#ce2e3e"/><stop offset="1" stop-color="#ea443a"/></linearGradient><linearGradient id="wbflh" x1="720.64" x2="720.64" y1="2680.67" y2="2667.74" gradientUnits="userSpaceOnUse"><stop offset="0" stop-color="#ce2e3e"/><stop offset="1" stop-color="#ea443a"/></linearGradient><linearGradient id="wbflj" x1="724.69" x2="724.68" y1="2686.19" y2="2672.23" gradientUnits="userSpaceOnUse"><stop offset="0" stop-color="#ce2e3e"/><stop offset="1" stop-color="#ea443a"/></linearGradient></defs><g><g transform="translate(-701 -2663)"><g><g><g><use fill="url(#wbflb)" xlink:href="#wbfla"/></g></g></g><g><g><g><use fill="url(#wbfld)" xlink:href="#wbflc"/></g></g></g><g><g><g><use fill="url(#wbflf)" xlink:href="#wbfle"/></g></g></g><g><g><g><use fill="url(#wbflh)" xlink:href="#wbflg"/></g></g></g><g><g><g><use fill="url(#wbflj)" xlink:href="#wbfli"/></g></g></g></g></g></svg>