<svg xmlns="http://www.w3.org/2000/svg" xmlns:xlink="http://www.w3.org/1999/xlink" width="70" height="63" viewBox="0 0 70 63"><defs><path id="lywua" d="M1155.1 2679.63zm1.81-7.08a1.03 1.03 0 1 0-1.98-.51l-.09.32H1150.44h-.02l-.08-.32a1.03 1.03 0 0 0-1.99.5l1.8 7.09a7.75 7.75 0 0 1 2.48-15.08 7.75 7.75 0 0 1 2.47 15.08zm-5.97 1.86h3.38l-1.43 5.62h-.51zm3.95 9.94c0 .04-.03.07-.07.07h-4.38a.07.07 0 0 1-.07-.07v-2.53a9.78 9.78 0 0 0 4.52 0zm-2.26-21.85a9.8 9.8 0 0 0-4.31 18.58v3.27c0 1.17.95 2.12 2.12 2.12h1.17v.07a1.03 1.03 0 1 0 2.05 0v-.07h1.16c1.17 0 2.12-.95 2.12-2.12v-3.27a9.8 9.8 0 0 0-4.3-18.58z"/><path id="lywuc" d="M1118.66 2715.1a8.83 8.83 0 0 1-7.87-4.8l1.5-.65a3.22 3.22 0 0 0 1.91-2.95v-2.46a11.92 11.92 0 0 0 8.91 0v2.46c0 1.28.75 2.43 1.92 2.95l1.49.65a8.8 8.8 0 0 1-7.86 4.8zm-9.94-21.98v-.86c0-.4.22-.76.59-.97a8.12 8.12 0 0 0 3.74-4.43 1.03 1.03 0 1 0-1.94-.64 6.1 6.1 0 0 1-2.83 3.3 3.2 3.2 0 0 0-1.6 2.61 13.24 13.24 0 0 1 11.98-18.81 13.24 13.24 0 0 1 11.98 18.8v-.93c0-1.25-.53-2.42-1.46-3.23-2.06-1.8-6.72-4.92-14.8-5.73a1.02 1.02 0 1 0-.2 2.04c7.51.76 11.78 3.6 13.66 5.24.48.41.75 1.03.75 1.68v1.93a9.95 9.95 0 0 1-19.87 0zm9.94-25.28c3.06 0 5.55 2 5.55 4.45v.02a15.2 15.2 0 0 0-11.1 0v-.02c0-2.45 2.49-4.45 5.55-4.45zm16.43 44l-9.23-4.07c-.43-.19-.7-.6-.7-1.07v-3.52a12.04 12.04 0 0 0 4.95-6.54 15.24 15.24 0 0 0-3.94-23.39c.06-.32.09-.64.09-.96 0-3.58-3.41-6.5-7.6-6.5-4.2 0-7.6 2.92-7.6 6.5 0 .32.03.64.08.96a15.28 15.28 0 0 0-3.94 23.39 12.04 12.04 0 0 0 4.95 6.54v3.52c0 .46-.27.88-.7 1.07l-9.23 4.08a5.41 5.41 0 0 0-3.22 4.95v7a1.03 1.03 0 0 0 2.05 0v-7c0-1.33.79-2.54 2-3.08l5.86-2.59a10.88 10.88 0 0 0 19.49 0l5.86 2.6c1.22.53 2 1.74 2 3.07v7a1.03 1.03 0 1 0 2.05 0v-7a5.41 5.41 0 0 0-3.22-4.95z"/><path id="lywue" d="M1107.7 2718.4c-.57 0-1.03.45-1.03 1.02v4.38a1.03 1.03 0 0 0 2.05 0v-4.38c0-.57-.46-1.03-1.02-1.03z"/><path id="lywug" d="M1129.62 2718.4c-.57 0-1.03.45-1.03 1.02v4.38a1.03 1.03 0 0 0 2.05 0v-4.38c0-.57-.46-1.03-1.02-1.03z"/><path id="lywui" d="M1164.69 2665.79a1.03 1.03 0 1 0 0 2.05 2.27 2.27 0 0 1 2.26 2.26v17.54a2.27 2.27 0 0 1-2.26 2.26h-10.96c-.22 0-.43.07-.6.2l-9.78 7.1 1.5-6.03a1.03 1.03 0 0 0-.99-1.27h-3.28a2.26 2.26 0 0 1-2.27-2.26v-17.54a2.26 2.26 0 0 1 2.27-2.26 1.03 1.03 0 1 0 0-2.05 4.32 4.32 0 0 0-4.32 4.31v17.54a4.32 4.32 0 0 0 4.32 4.31h1.97l-1.5 6.03a1.57 1.57 0 0 0 2.45 1.65l10.56-7.68h10.63a4.32 4.32 0 0 0 4.31-4.31v-17.54a4.32 4.32 0 0 0-4.31-4.31z"/><linearGradient id="lywub" x1="1149.16" x2="1149.16" y1="2687.57" y2="2659.89" gradientUnits="userSpaceOnUse"><stop offset="0" stop-color="#ce2e3e"/><stop offset="1" stop-color="#ea443a"/></linearGradient><linearGradient id="lywud" x1="1111.69" x2="1111.68" y1="2724.83" y2="2659.64" gradientUnits="userSpaceOnUse"><stop offset="0" stop-color="#ce2e3e"/><stop offset="1" stop-color="#ea443a"/></linearGradient><linearGradient id="lywuf" x1="1107.33" x2="1107.33" y1="2724.82" y2="2717.72" gradientUnits="userSpaceOnUse"><stop offset="0" stop-color="#ce2e3e"/><stop offset="1" stop-color="#ea443a"/></linearGradient><linearGradient id="lywuh" x1="1129.25" x2="1129.25" y1="2724.82" y2="2717.72" gradientUnits="userSpaceOnUse"><stop offset="0" stop-color="#ce2e3e"/><stop offset="1" stop-color="#ea443a"/></linearGradient><linearGradient id="lywuj" x1="1146.83" x2="1146.82" y1="2699.94" y2="2662.23" gradientUnits="userSpaceOnUse"><stop offset="0" stop-color="#ce2e3e"/><stop offset="1" stop-color="#ea443a"/></linearGradient></defs><g><g transform="translate(-1099 -2662)"><g><g><g><use fill="url(#lywub)" xlink:href="#lywua"/></g></g></g><g><g><g><use fill="url(#lywud)" xlink:href="#lywuc"/></g></g></g><g><g><g><use fill="url(#lywuf)" xlink:href="#lywue"/></g></g></g><g><g><g><use fill="url(#lywuh)" xlink:href="#lywug"/></g></g></g><g><g><g><use fill="url(#lywuj)" xlink:href="#lywui"/></g></g></g></g></g></svg>