<svg xmlns="http://www.w3.org/2000/svg" xmlns:xlink="http://www.w3.org/1999/xlink" width="70" height="54" viewBox="0 0 70 54"><defs><path id="8tcza" d="M1511.04 2714.63c-.57 0-1.02.45-1.02 1.02v4.38a1.03 1.03 0 0 0 2.05 0v-4.38c0-.57-.46-1.02-1.03-1.02z"/><path id="8tczc" d="M1532.96 2714.63c-.57 0-1.03.45-1.03 1.02v4.38a1.03 1.03 0 0 0 2.05 0v-4.38c0-.57-.45-1.02-1.02-1.02z"/><path id="8tcze" d="M1502.73 2692.82c-2.38-1.2-6.84-1.2-7.03-1.2a1.03 1.03 0 0 0 0 2.04c1.15 0 4.5.18 6.11.99a1.02 1.02 0 0 0 1.38-.46c.25-.5.05-1.12-.46-1.37z"/><path id="8tczg" d="M1492.4 2712.43c-.56 0-1.02.46-1.02 1.03v6.57a1.03 1.03 0 0 0 2.05 0v-6.57c0-.57-.45-1.03-1.02-1.03z"/><path id="8tczi" d="M1546.11 2703.67a5.54 5.54 0 0 1-5.51-4.95c-.02-.15-.07-.3-.15-.43a6.62 6.62 0 0 1 5.66-10.1 6.65 6.65 0 0 1 6.31 8.71c-2.91-2.96-8.03-4.11-8.28-4.17a1.03 1.03 0 0 0-1.25 1s-.04.72-.8 1.47a1.03 1.03 0 1 0 1.46 1.45c.57-.58.91-1.16 1.11-1.66 1.73.52 5.3 1.81 6.92 4.08a5.54 5.54 0 0 1-5.47 4.6zm1.56 4.7c-.87.83-2.24.83-3.12 0l-.95-.9c.16-.3.25-.65.25-1v-1.1a7.62 7.62 0 0 0 4.52 0v1.1c0 .35.1.7.25 1zm-5.87-1.9c0 .02-.02.05-.04.06l-3.21 1.6-.12-.05-4.69-2.07c2.28-.81 3.84-1.7 4.66-2.23a2.1 2.1 0 0 0 .9-2.27 7.58 7.58 0 0 0 2.5 2.87zm-10.9-1.72l-1.7-.75c-.42-.18-.7-.6-.7-1.07v-3.52a11.99 11.99 0 0 0 5.48-10.06v-1.92c0-1.25-.53-2.43-1.45-3.24-2.06-1.79-6.73-4.92-14.81-5.73a1.03 1.03 0 0 0-.2 2.05c7.51.75 11.79 3.6 13.66 5.23.48.42.75 1.03.75 1.69v1.92a9.95 9.95 0 0 1-19.86 0v-.86c0-.4.21-.75.58-.96a8.12 8.12 0 0 0 3.75-4.43 1.03 1.03 0 0 0-1.95-.65 6.1 6.1 0 0 1-2.82 3.3 3.19 3.19 0 0 0-1.61 2.74v.86c0 4.21 2.18 7.92 5.47 10.06v3.52c0 .47-.27.89-.69 1.07l-1.7.75a22.65 22.65 0 0 1-6.38-2.7c-.02 0-.03-.02-.03-.05.36-2.12 1.28-8.22 2.09-19.15.3-4.04 1.72-7.42 4.1-9.78a12.66 12.66 0 0 1 9.12-3.52c3.62 0 6.77 1.22 9.11 3.52 2.4 2.36 3.82 5.74 4.11 9.78.81 10.93 1.73 17.03 2.09 19.15 0 .03 0 .04-.03.06-.97.63-3.09 1.8-6.39 2.69zm-8.9 6.59a8.83 8.83 0 0 1-7.86-4.8l1.49-.66a3.22 3.22 0 0 0 1.92-2.95v-2.46a11.92 11.92 0 0 0 8.9 0v2.46c0 1.28.76 2.43 1.92 2.95l1.5.66a8.8 8.8 0 0 1-7.87 4.8zm-14.62-4.06l-3.24-.93c-.84-.24-.84-.33-.84-.56v-1.41a7.7 7.7 0 0 0 1.56-1.44c.16.33.42.63.74.84.82.53 2.37 1.41 4.66 2.23zm-8.57-3.62c-2.96-.09-5.38-2.7-5.38-5.82v-1.92c0-.15-.03-.31-.1-.45l-.64-1.27a3.38 3.38 0 0 1-.35-1.5v-.06c0-2.46 2-4.46 4.45-4.46h8.84v4.26c0 .69-.16 1.38-.47 2l-.52 1.03c-.07.14-.1.3-.1.45v2.2a5.51 5.51 0 0 1-5.72 5.55zm.18 5.06l-2.34-2.33c.05-.2.07-.4.07-.6v-.43a7.18 7.18 0 0 0 2.27.36c.78 0 1.53-.12 2.26-.34v.4c0 .23.02.43.06.62zm47.12-24.92c1.85 0 3.36 1.26 3.36 2.8l-.01.2a8.65 8.65 0 0 0-6.7 0v-.2c0-1.54 1.5-2.8 3.35-2.8zm8.5 24.8l-4.15-2.07a.07.07 0 0 1-.04-.06v-2.1a7.57 7.57 0 0 0 3.22-5.2 8.67 8.67 0 0 0-2.3-11.3c.12-.4.18-.83.18-1.26 0-2.68-2.43-4.86-5.4-4.86-3 0-5.42 2.18-5.42 4.86 0 .43.07.86.19 1.27a8.74 8.74 0 0 0-2.85 3.7c-.25-2.49-.52-5.44-.77-8.88-.33-4.54-1.97-8.37-4.72-11.09a14.67 14.67 0 0 0-10.55-4.11c-4.17 0-7.82 1.42-10.55 4.11-2.75 2.72-4.39 6.55-4.72 11.09l-.27 3.43h-9.67a6.51 6.51 0 0 0-6.5 6.5v.07c0 .83.2 1.67.57 2.42l.52 1.05v1.67a8 8 0 0 0 3.3 6.47v1.48c0 .19-.14.36-.32.4l-4.23 1.22a4.33 4.33 0 0 0-3.13 4.15v8.48a1.03 1.03 0 0 0 2.05 0v-8.48c0-1 .68-1.9 1.64-2.18l4.24-1.2c.15-.05.3-.11.43-.18l2.6 2.6v9.44a1.03 1.03 0 0 0 2.05 0v-9.44l2.62-2.62c.35.17.7.27.95.34l1.04.3a5.41 5.41 0 0 0-2.28 4.4v7.01a1.03 1.03 0 0 0 2.05 0v-7c0-1.33.79-2.54 2-3.07l5.87-2.6a10.88 10.88 0 0 0 19.48 0l5.86 2.6c1.22.53 2 1.74 2 3.07v7a1.03 1.03 0 0 0 2.06 0v-7a5.4 5.4 0 0 0-1.3-3.51l1.59-.8 1.19 1.14a4.3 4.3 0 0 0 5.94 0l1.2-1.13 3.42 1.7a2.25 2.25 0 0 1 1.25 2.03v7.58a1.03 1.03 0 0 0 2.05 0v-7.58c0-1.64-.91-3.12-2.38-3.86z"/><path id="8tczk" d="M1551.6 2713.79c-.58 0-1.03.46-1.03 1.02v5.23a1.03 1.03 0 0 0 2.05 0v-5.23c0-.56-.46-1.02-1.03-1.02z"/><linearGradient id="8tczb" x1="1510.68" x2="1510.68" y1="2721.06" y2="2713.96" gradientUnits="userSpaceOnUse"><stop offset="0" stop-color="#ce2e3e"/><stop offset="1" stop-color="#ea443a"/></linearGradient><linearGradient id="8tczd" x1="1532.59" x2="1532.59" y1="2721.06" y2="2713.96" gradientUnits="userSpaceOnUse"><stop offset="0" stop-color="#ce2e3e"/><stop offset="1" stop-color="#ea443a"/></linearGradient><linearGradient id="8tczf" x1="1497.46" x2="1497.45" y1="2694.76" y2="2691.28" gradientUnits="userSpaceOnUse"><stop offset="0" stop-color="#ce2e3e"/><stop offset="1" stop-color="#ea443a"/></linearGradient><linearGradient id="8tczh" x1="1492.04" x2="1492.04" y1="2721.06" y2="2711.53" gradientUnits="userSpaceOnUse"><stop offset="0" stop-color="#ce2e3e"/><stop offset="1" stop-color="#ea443a"/></linearGradient><linearGradient id="8tczj" x1="1509.59" x2="1509.57" y1="2721.06" y2="2661.92" gradientUnits="userSpaceOnUse"><stop offset="0" stop-color="#ce2e3e"/><stop offset="1" stop-color="#ea443a"/></linearGradient><linearGradient id="8tczl" x1="1551.23" x2="1551.23" y1="2721.06" y2="2713.03" gradientUnits="userSpaceOnUse"><stop offset="0" stop-color="#ce2e3e"/><stop offset="1" stop-color="#ea443a"/></linearGradient></defs><g><g transform="translate(-1487 -2667)"><g><g><g><use fill="url(#8tczb)" xlink:href="#8tcza"/></g></g></g><g><g><g><use fill="url(#8tczd)" xlink:href="#8tczc"/></g></g></g><g><g><g><use fill="url(#8tczf)" xlink:href="#8tcze"/></g></g></g><g><g><g><use fill="url(#8tczh)" xlink:href="#8tczg"/></g></g></g><g><g><g><use fill="url(#8tczj)" xlink:href="#8tczi"/></g></g></g><g><g><g><use fill="url(#8tczl)" xlink:href="#8tczk"/></g></g></g></g></g></svg>