<svg xmlns="http://www.w3.org/2000/svg" xmlns:xlink="http://www.w3.org/1999/xlink" width="18" height="18" viewBox="0 0 18 18"><defs><path id="aepva" d="M1797.4 3710.03a3.37 3.37 0 0 1-3.37 3.37h-8.06a3.37 3.37 0 0 1-3.37-3.37v-8.06a3.37 3.37 0 0 1 3.37-3.37h8.06a3.37 3.37 0 0 1 3.37 3.37v8.06zm-3.37-13.03h-8.06a4.97 4.97 0 0 0-4.97 4.97v8.06a4.97 4.97 0 0 0 4.97 4.97h8.06a4.97 4.97 0 0 0 4.97-4.97v-8.06a4.97 4.97 0 0 0-4.97-4.97z"/><path id="aepvb" d="M1790 3709.04a3.04 3.04 0 1 1 0-6.09 3.04 3.04 0 0 1 0 6.1zm0-7.68a4.64 4.64 0 1 0 .01 9.29 4.64 4.64 0 0 0-.01-9.29z"/><path id="aepvc" d="M1794.83 3700a1.18 1.18 0 0 0-1.17 1.18 1.18 1.18 0 0 0 1.17 1.17c.31 0 .61-.13.83-.34a1.18 1.18 0 0 0 0-1.66 1.18 1.18 0 0 0-.83-.34z"/></defs><g><g transform="translate(-1781 -3697)"><g><use fill="#fff" xlink:href="#aepva"/></g><g><use fill="#fff" xlink:href="#aepvb"/></g><g><use fill="#fff" xlink:href="#aepvc"/></g></g></g></svg>