<svg xmlns="http://www.w3.org/2000/svg" xmlns:xlink="http://www.w3.org/1999/xlink" width="106" height="41" viewBox="0 0 106 41"><defs><path id="67nua" d="M809.97 28.13c0 1.15-.37 2.05-1.12 2.71-.74.66-1.62 1-2.63 1a3.84 3.84 0 0 1-2.63-1 3.44 3.44 0 0 1-1.12-2.71c0-1.15.37-2.06 1.12-2.72a3.84 3.84 0 0 1 2.63-.99c1.01 0 1.89.33 2.63 1a3.44 3.44 0 0 1 1.12 2.7zm-.6 28.55h-6.27V34.53h6.28zm-18.62 0l.1-31.67 6.27-1.01-.27 32.68zm-4.48-11.07c0 1.7-.21 3.27-.64 4.67a10.52 10.52 0 0 1-1.85 3.62 8.37 8.37 0 0 1-3.03 2.36c-1.2.56-2.6.84-4.17.84a11.25 11.25 0 0 1-4.63-.96v8.34h-6.28v-29.2a33.8 33.8 0 0 1 6.68-1.16c.82-.06 1.62-.1 2.38-.1 1.82 0 3.45.28 4.88.83 1.43.54 2.64 1.32 3.62 2.31.99 1 1.74 2.21 2.26 3.65a14 14 0 0 1 .78 4.8zm-6.4.16c0-1.93-.44-3.48-1.31-4.65-.87-1.16-2.16-1.75-3.88-1.75a17.8 17.8 0 0 0-2.73.21v11.33c.39.26.9.47 1.53.64a7.4 7.4 0 0 0 1.92.25c2.98 0 4.46-2.01 4.46-6.03zm-38.33-.84c0-2.02-.26-3.45-.78-4.3-.52-.84-1.41-1.26-2.68-1.26-.39 0-.8.02-1.22.07l-1.22.14v17.1h-6.27v-21.4a43.53 43.53 0 0 1 6.6-1.15c.85-.07 1.68-.1 2.5-.1 1.6 0 2.9.2 3.89.6 1 .41 1.82.9 2.46 1.46.9-.65 1.93-1.15 3.1-1.52 1.16-.36 2.24-.55 3.22-.55 1.77 0 3.22.25 4.36.74a6.57 6.57 0 0 1 2.72 2.09c.67.9 1.13 1.96 1.39 3.2.25 1.23.37 2.6.37 4.12v12.51h-6.27V44.93c0-2.02-.26-3.45-.78-4.3-.52-.84-1.41-1.26-2.67-1.26-.34 0-.81.09-1.42.26-.6.16-1.1.37-1.5.63.2.64.33 1.32.39 2.04.05.72.08 1.48.08 2.3v12.08h-6.27zm-27.5-10.99c1.85 0 3.4.21 4.63.63a7.2 7.2 0 0 1 2.97 1.81 6.66 6.66 0 0 1 1.58 2.87c.3 1.12.46 2.37.46 3.75v13.05c-.9.2-2.15.43-3.75.7-1.6.26-3.54.4-5.81.4-1.43 0-2.73-.13-3.9-.38a8.46 8.46 0 0 1-3-1.24 5.69 5.69 0 0 1-1.95-2.26 7.78 7.78 0 0 1-.67-3.41 6 6 0 0 1 2.86-5.43 9.42 9.42 0 0 1 3-1.16c1.12-.24 2.28-.36 3.49-.36.81 0 1.54.04 2.17.1.63.08 1.14.17 1.54.28v-.59c0-1.07-.33-1.92-.97-2.57-.65-.64-1.77-.97-3.37-.97-1.07 0-2.12.08-3.16.23-1.04.16-1.94.38-2.7.66l-.8-5.06a20.28 20.28 0 0 1 3.16-.7c.65-.09 1.33-.17 2.05-.24.71-.07 1.43-.11 2.16-.11zm.5 18.36c.62 0 1.2-.01 1.77-.04a12.3 12.3 0 0 0 1.35-.13v-4.75a12.66 12.66 0 0 0-4.2-.15c-.51.07-.97.2-1.36.4-.4.2-.7.46-.93.8-.22.34-.34.76-.34 1.26 0 .98.33 1.67 1 2.04.65.38 1.56.57 2.71.57z"/><linearGradient id="67nub" x1="738.61" x2="738.58" y1="64.48" y2="19.78" gradientUnits="userSpaceOnUse"><stop offset="0" stop-color="#ce2e3e"/><stop offset="1" stop-color="#ea443a"/></linearGradient></defs><g><g transform="translate(-704 -24)"><use fill="url(#67nub)" xlink:href="#67nua"/></g></g></svg>