<svg xmlns="http://www.w3.org/2000/svg" xmlns:xlink="http://www.w3.org/1999/xlink" width="39" height="24" viewBox="0 0 39 24"><defs><path id="panda" d="M1587.49 3705.87a11.87 11.87 0 1 1-23.74.01 11.87 11.87 0 0 1 23.74 0z"/><path id="pandb" d="M1589.87 3694c-2.66 0-5.11.89-7.1 2.37h.02c.39.38.82.64 1.15 1.07l-2.47.04c-.39.4-.74.82-1.07 1.26h4.35c.33.4.64.74.92 1.18h-6.06c-.22.39-.43.78-.6 1.19h7.35c.19.4.36.71.5 1.14h-8.3c-.13.41-.24.83-.33 1.26h8.99c.08.41.15.79.2 1.18h-9.36c-.04.39-.06.78-.06 1.18h9.49c0 .42-.03.81-.08 1.2h-9.35c.04.4.1.79.17 1.18h8.97c-.1.38-.2.77-.33 1.17h-8.33c.12.4.28.8.44 1.19h7.38c-.2.43-.44.77-.7 1.18h-6.07c.24.42.5.81.79 1.2l4.37.06c-.37.44-.85.71-1.28 1.1.02.03-.7 0-2.12-.02a11.87 11.87 0 1 0 8.52-20.13z"/></defs><g><g transform="translate(-1563 -3694)"><g><use fill="#e2574c" xlink:href="#panda"/></g><g><use fill="#f4b459" xlink:href="#pandb"/></g></g></g></svg>