<svg xmlns="http://www.w3.org/2000/svg" xmlns:xlink="http://www.w3.org/1999/xlink" width="64" height="20" viewBox="0 0 64 20"><defs><path id="i02va" d="M1636.72 3696h5.43l-8.06 19.94h-5.43l-4.6-17.16c3.25 1.67 6.16 5.02 7.1 8.1l.54 2.68 5.02-13.56zm35.24 12zm0 0h3.62l-1.56-6.46s-1.95 6.45-2.06 6.46zm10.04 7.98h-4.75l-.76-3.98h-6.02l-1.49 3.96h-5.38l7.62-18.3c.53-1.25 1.46-1.6 2.68-1.6h3.97zm-22.32-11.85c2.95 1.38 4.32 3.06 4.3 5.27-.04 4-3.54 6.6-8.92 6.6-2.3-.02-4.52-.5-5.72-1.03l.72-4.34.67.3c1.67.73 2.77 1.04 4.81 1.04 1.48 0 3.06-.6 3.08-1.9 0-.84-.67-1.45-2.66-2.4-1.94-.93-4.53-2.47-4.49-5.25.02-3.76 3.59-6.4 8.65-6.4 1.98 0 3.59.44 4.6.83l-.7 4.17-.46-.2a8.92 8.92 0 0 0-3.82-.74c-2.02 0-2.93.84-2.95 1.66 0 .9 1.1 1.5 2.89 2.4zm-10.34-8.13l-3.2 19.96H1641l3.2-19.96h5.13z"/><path id="i02vb" d="M1629.46 3698.57a3.35 3.35 0 0 0-3.33-2.57h-7.96l-.08.37c6.2 1.53 11.41 6.24 13.1 10.67z"/></defs><g><g transform="translate(-1618 -3696)"><g><g><g><use fill="#2394bc" xlink:href="#i02va"/></g></g></g><g><use fill="#efc75e" xlink:href="#i02vb"/></g></g></g></svg>