<svg xmlns="http://www.w3.org/2000/svg" xmlns:xlink="http://www.w3.org/1999/xlink" width="20" height="12" viewBox="0 0 20 12"><defs><path id="u6eua" d="M1856.8 3708.01a16.95 16.95 0 0 0 2.04 2.38c.16.27.2.48.12.64-.14.26-.6.4-.75.4h-2.86a2 2 0 0 1-1.11-.4 6.93 6.93 0 0 1-1.14-1.14c-.55-.64-1.03-1.2-1.52-1.2a.55.55 0 0 0-.18.03c-.37.11-.83.64-.83 2.03 0 .44-.35.68-.59.68h-1.3c-.45 0-2.77-.15-4.83-2.32-2.53-2.66-4.8-8-4.81-8.04-.14-.35.15-.53.47-.53h2.89c.38 0 .51.23.6.44.1.24.48 1.2 1.1 2.29 1 1.76 1.62 2.48 2.11 2.48.1 0 .18-.03.27-.07.64-.36.52-2.66.49-3.13 0-.1 0-1.03-.33-1.48a1.42 1.42 0 0 0-.88-.5c.06-.09.2-.23.38-.32a5.3 5.3 0 0 1 2.03-.25h.44c.85.01 1.08.07 1.39.15.63.15.64.55.58 1.94-.01.4-.03.84-.03 1.37v.36c-.02.71-.05 1.51.45 1.84a.4.4 0 0 0 .22.06c.17 0 .7 0 2.1-2.42.63-1.07 1.1-2.34 1.14-2.43.03-.05.11-.2.22-.26a.48.48 0 0 1 .23-.06h3.4c.37 0 .62.06.67.2.08.22-.02.92-1.57 3.01l-.7.92c-1.4 1.84-1.4 1.93.1 3.33z"/></defs><g><g transform="translate(-1839 -3700)"><use fill="#fff" xlink:href="#u6eua"/></g></g></svg>