<svg xmlns="http://www.w3.org/2000/svg" xmlns:xlink="http://www.w3.org/1999/xlink" width="618" height="571"><defs><path id="a" d="M1083.16 2039.9H937.84a59.58 59.58 0 0 1-51.53-29.77l-72.71-125.8a59.56 59.56 0 0 1 0-59.45l72.71-125.92a59.81 59.81 0 0 1 51.53-29.78h145.32a59.58 59.58 0 0 1 51.53 29.78l72.71 125.92a59.56 59.56 0 0 1 0 59.44l-72.71 125.92a59.71 59.71 0 0 1-51.53 29.67zm172.54-243.02l-72.72-125.8a115.55 115.55 0 0 0-99.82-57.66H937.84c-41.04 0-79.3 22.08-99.82 57.66l-72.72 125.8a115.5 115.5 0 0 0 0 115.21l72.72 125.92a115.55 115.55 0 0 0 99.82 57.66h145.32c41.04 0 79.3-22.08 99.82-57.66l72.72-125.92a115.5 115.5 0 0 0 0-115.2z"/><path id="b" d="M1087.89 1836.15l-22.63-39.22a36.84 36.84 0 0 0-31.9-18.52h-45.4a37 37 0 0 0-31.88 18.4l-22.77 39.34a37.08 37.08 0 0 0 0 36.91l22.64 39.22a37 37 0 0 0 31.89 18.4h45.4a37 37 0 0 0 31.89-18.4l22.76-39.22a37.08 37.08 0 0 0 0-36.9z"/><path id="c" d="M1278.24 1791.58l-79.4-137.37a126.17 126.17 0 0 0-109-62.97H931.16a126.17 126.17 0 0 0-109 62.97l-79.4 137.37a126.12 126.12 0 0 0 0 125.8l79.4 137.5a126.17 126.17 0 0 0 109 62.96h158.68c44.82 0 86.6-24.11 109-62.96l79.4-137.5a126.12 126.12 0 0 0 0-125.8z"/><path id="d" d="M1300.78 1786.28l-86.09-148.94a136.8 136.8 0 0 0-118.17-68.26H924.48a136.8 136.8 0 0 0-118.17 68.26l-86.09 148.94a136.73 136.73 0 0 0 0 136.4l86.09 149.06A136.8 136.8 0 0 0 924.48 2140h172.04a136.8 136.8 0 0 0 118.17-68.26l86.09-149.07a136.73 136.73 0 0 0 0-136.39z"/><path id="h" d="M941.03 2058.42a83.34 83.34 0 0 1-72.3-41.8l-69.52-120.28a83.43 83.43 0 0 1 0-83.5l69.52-120.38a83.34 83.34 0 0 1 72.3-41.8h138.94a83.34 83.34 0 0 1 72.3 41.8l69.52 120.28a83.43 83.43 0 0 1 0 83.5l-69.52 120.38a83.7 83.7 0 0 1-72.3 41.8z"/><path id="j" d="M1135.58 1826.5l-38.77-67.1a55.84 55.84 0 0 0-48.18-27.83h-77.44a55.88 55.88 0 0 0-48.28 27.82l-38.67 67.1a55.74 55.74 0 0 0 0 55.65l38.77 67.1a55.72 55.72 0 0 0 48.18 27.83h77.44a55.72 55.72 0 0 0 48.18-27.82l38.77-67.1a56.24 56.24 0 0 0 0-55.65z"/><path id="l" d="M1062.34 1838.06c0 1.14-.37 2.05-1.11 2.7-.74.66-1.62.99-2.63.99-1 0-1.88-.33-2.62-.99a3.43 3.43 0 0 1-1.1-2.7c0-1.15.36-2.05 1.1-2.7a3.82 3.82 0 0 1 2.62-1c1.01 0 1.89.33 2.63 1a3.43 3.43 0 0 1 1.1 2.7zm-.59 28.44h-6.25v-22.07h6.25zm-18.55 0l.1-31.55 6.24-1-.27 32.55zm-4.47-11.03c0 1.7-.21 3.26-.63 4.65-.42 1.4-1.03 2.6-1.85 3.61a8.33 8.33 0 0 1-3.02 2.35 11.2 11.2 0 0 1-8.77-.13v8.31h-6.25v-29.07a33.64 33.64 0 0 1 6.65-1.15c.83-.07 1.62-.11 2.37-.11 1.82 0 3.44.27 4.87.82a10 10 0 0 1 3.6 2.3 9.9 9.9 0 0 1 2.25 3.63c.52 1.43.78 3.03.78 4.79zm-6.38.17c0-1.93-.43-3.48-1.3-4.64-.86-1.16-2.15-1.74-3.86-1.74a17.73 17.73 0 0 0-2.72.2v11.3a7.38 7.38 0 0 0 3.44.88c2.96 0 4.44-2 4.44-6zm-38.17-.84c0-2.02-.26-3.44-.78-4.28-.52-.84-1.4-1.26-2.66-1.26-.4 0-.8.02-1.22.06-.42.04-.83.1-1.22.15v17.03h-6.25v-21.31a43.44 43.44 0 0 1 6.59-1.15c.84-.07 1.66-.11 2.47-.11 1.6 0 2.89.2 3.88.6 1 .41 1.81.9 2.46 1.46.9-.65 1.92-1.15 3.08-1.51a10.8 10.8 0 0 1 3.21-.55c1.76 0 3.21.25 4.34.73a6.54 6.54 0 0 1 2.7 2.08c.68.9 1.14 1.96 1.4 3.19.24 1.23.37 2.6.37 4.11v12.46h-6.25v-11.7c0-2.02-.26-3.44-.78-4.28-.51-.84-1.4-1.26-2.66-1.26-.34 0-.8.08-1.4.25-.6.17-1.1.38-1.5.63.2.64.33 1.32.38 2.03.06.72.09 1.48.09 2.3v12.03h-6.25zm-27.4-10.95c1.85 0 3.38.2 4.61.63a7.17 7.17 0 0 1 2.96 1.8 6.63 6.63 0 0 1 1.58 2.85c.3 1.12.46 2.37.46 3.74v13c-.9.2-2.14.43-3.74.7-1.6.26-3.52.4-5.79.4-1.42 0-2.72-.13-3.88-.38a8.42 8.42 0 0 1-3-1.24 5.66 5.66 0 0 1-1.93-2.25 7.75 7.75 0 0 1-.67-3.4 5.97 5.97 0 0 1 2.85-5.41 9.38 9.38 0 0 1 2.98-1.15c1.12-.24 2.28-.36 3.49-.36.8 0 1.53.04 2.16.1.63.08 1.14.17 1.53.28v-.59c0-1.06-.32-1.91-.97-2.56-.64-.64-1.76-.96-3.35-.96-1.07 0-2.12.08-3.15.23a13.5 13.5 0 0 0-2.68.65l-.8-5.03a20.2 20.2 0 0 1 3.14-.7c.65-.1 1.33-.18 2.04-.25s1.43-.1 2.16-.1zm.5 18.29c.62 0 1.2-.02 1.77-.04.55-.03 1-.07 1.34-.13v-4.74a12.61 12.61 0 0 0-4.17-.15c-.52.07-.98.2-1.37.4-.4.2-.7.46-.92.8-.23.33-.34.75-.34 1.26 0 .98.33 1.65.99 2.03.65.38 1.56.57 2.7.57z"/><mask id="f" width="2" height="2" x="-1" y="-1"><path fill="#fff" d="M749 1613h523v483H749z"/><use xlink:href="#a"/></mask><filter id="e" width="593" height="556" x="714" y="1578" filterUnits="userSpaceOnUse"><feOffset dy="3" in="SourceGraphic" result="FeOffset1023Out"/><feGaussianBlur in="FeOffset1023Out" result="FeGaussianBlur1024Out" stdDeviation="10 10"/></filter><linearGradient id="g" x1="1010.5" x2="1010.5" y1="1613.42" y2="2095.67" gradientUnits="userSpaceOnUse"><stop offset="0" stop-color="#18dde0"/><stop offset="1" stop-color="#009ba8"/></linearGradient><linearGradient id="i" x1="962.69" x2="962.61" y1="1977.07" y2="1705.98" gradientUnits="userSpaceOnUse"><stop offset="0" stop-color="#ce2e3e"/><stop offset="1" stop-color="#ea443a"/></linearGradient><clipPath id="k"><use fill="#fff" xlink:href="#b"/></clipPath><mask id="n" width="2" height="2" x="-1" y="-1"><path fill="#fff" d="M725 1591h571v527H725z"/><use xlink:href="#c"/></mask><filter id="m" width="651" height="610" x="685" y="1551" filterUnits="userSpaceOnUse"><feOffset dy="3" in="SourceGraphic" result="FeOffset1067Out"/><feGaussianBlur in="FeOffset1067Out" result="FeGaussianBlur1068Out" stdDeviation="12 12"/></filter><clipPath id="o"><use fill="#fff" xlink:href="#c"/></clipPath><mask id="q" width="2" height="2" x="-1" y="-1"><path fill="#fff" d="M702 1569h617v571H702z"/><use xlink:href="#d"/></mask><filter id="p" width="697" height="654" x="662" y="1529" filterUnits="userSpaceOnUse"><feOffset dy="3" in="SourceGraphic" result="FeOffset1085Out"/><feGaussianBlur in="FeOffset1085Out" result="FeGaussianBlur1086Out" stdDeviation="12 12"/></filter><clipPath id="r"><use fill="#fff" xlink:href="#d"/></clipPath></defs><g transform="translate(-701 -1569)"><g filter="url(#e)"><use fill="none" stroke-opacity=".24" stroke-width="0" mask="url(&quot;#f&quot;)" xlink:href="#a"/><use fill="#676c6c" fill-opacity=".24" xlink:href="#a"/></g><use fill="url(#g)" xlink:href="#a"/></g><use fill="#0abcc0" xlink:href="#h" opacity=".74" transform="translate(-701 -1569)"/><use fill="url(#i)" xlink:href="#j" transform="translate(-701 -1569)"/><use fill="#fff" fill-opacity="0" stroke="#fff" stroke-miterlimit="50" stroke-width="2" clip-path="url(&quot;#k&quot;)" xlink:href="#b" transform="translate(-701 -1569)"/><use fill="#fff" xlink:href="#l" transform="translate(-701 -1569)"/><g opacity=".2" transform="translate(-701 -1569)"><g filter="url(#m)"><use fill="none" stroke-width="0" mask="url(&quot;#n&quot;)" xlink:href="#c"/><use xlink:href="#c"/></g><use fill="#fff" fill-opacity="0" stroke="#15d7db" stroke-miterlimit="50" stroke-width="2" clip-path="url(&quot;#o&quot;)" xlink:href="#c"/></g><g opacity=".2" transform="translate(-701 -1569)"><g filter="url(#p)"><use fill="none" stroke-width="0" mask="url(&quot;#q&quot;)" xlink:href="#d"/><use xlink:href="#d"/></g><use fill="#fff" fill-opacity="0" stroke="#15d7db" stroke-miterlimit="50" stroke-width="2" clip-path="url(&quot;#r&quot;)" xlink:href="#d"/></g></svg>